# xmcd
# 
# Track frame offsets:
#     150
#     16320
#     34633
#     49327
#     64480
#     77779
#     93388
#     108358
#     130321
#     147483
#     161062
#     188197
#     205262
#     215617
# 
# Disc length: 3065
# 
# Revision: 5
# Processed by: cddbd v1.5.2PL0 Copyright (c) Steve Scherf et al.
# Submitted via: fre:ac v1.0.31
# 
DISCID=d00bf70e
DTITLE=Various Artist - Suicide Squad The Album OST
DYEAR=2016
DGENRE=Pop/Rock
TTITLE0=Skrillex and Rick Ross - Purple Lamborghini
TTITLE1=Lil Wayne, Wiz Khalifa and Imagine Dragons With Logic and TY Dolla Sign Ft. X Ambassadors - Sucker For Pain
TTITLE2=Twenty One Pilots - Heathens
TTITLE3=Action Bronson, Mark Ronson and Dan Auerbach - Standing In The Rain
TTITLE4=Kehlani - Gangsta
TTITLE5=Kevin Gates - Know Better
TTITLE6=Grace Ft. G-Eazy - You Don't Own Me
TTITLE7=Eminem - Without Me
TTITLE8=Skylar Grey - Wreak Havoc
TTITLE9=Grimes - Medieval Warfare
TTITLE10=Panic! At The Disco - Bohemian Rhapsody
TTITLE11=War - Slippin' Into Darkness
TTITLE12=Creedence Clearwater Revival - Fortunate Son
TTITLE13=Confidentialmx Ft. Becky Hanson - I Started A Joke
EXTD=
EXTT0=
EXTT1=
EXTT2=
EXTT3=
EXTT4=
EXTT5=
EXTT6=
EXTT7=
EXTT8=
EXTT9=
EXTT10=
EXTT11=
EXTT12=
EXTT13=
PLAYORDER=
